Test                                                                    S      1
1H,,1H;,4HTest;                                                         G      1
     128       1       0       0       0       0       0       000000000D      1
     128       0       0       2       0                               0D      2
     110       3       0       0       0       0       0       000000000D      3
     110       0       0       1       0                               0D      4
     110       4       0       0       0       0       0       000000000D      5
     110       0       0       1       0                               0D      6
     120       5       0       0       0       0       0       000000000D      7
     120       0       0       1       0                               0D      8
128,1,1,1,1,0,0,1,0,0,0,0,1,1,0,0,1,1,1,1,1,1,0,0,0,10,0,0,0,20,       1P      1
0,10,20,0,0,1,0,1;                                                     1P      2
110,30,0,0,30,0,1;                                                     3P      3
110,35,0,0,35,0,10;                                                    5P      4
120,3,5,0,6.28319;                                                     7P      5
S      1G      1D      8P      5                                        T      1
